<mxfile host="drawio-plugin" modified="2021-05-31T13:35:48.964Z" agent="5.0 (Windows NT 6.2; Win64; x64) AppleWebKit/537.36 (KHTML, like Gecko) Chrome/87.0.4280.141 Safari/537.36" etag="fEznff-vP4gl_eZY5r4b" version="14.6.6" type="embed"><diagram id="8uP1qweIW0sRmBoUQ3pB" name="Page-1"><mxGraphModel dx="899" dy="400" grid="1" gridSize="10" guides="1" tooltips="1" connect="1" arrows="1" fold="1" page="1" pageScale="1" pageWidth="827" pageHeight="1169" math="0" shadow="0"><root><mxCell id="0"/><mxCell id="1" parent="0"/><mxCell id="yNfXGNgvHf2kk-u2jspG-1" value="1" style="ellipse;whiteSpace=wrap;html=1;aspect=fixed;" parent="1" vertex="1"><mxGeometry x="80" y="20" width="80" height="80" as="geometry"/></mxCell><mxCell id="yNfXGNgvHf2kk-u2jspG-2" value="2" style="ellipse;whiteSpace=wrap;html=1;aspect=fixed;" parent="1" vertex="1"><mxGeometry x="80" y="140" width="80" height="80" as="geometry"/></mxCell><mxCell id="yNfXGNgvHf2kk-u2jspG-3" value="3" style="ellipse;whiteSpace=wrap;html=1;aspect=fixed;" parent="1" vertex="1"><mxGeometry x="80" y="260" width="80" height="80" as="geometry"/></mxCell><mxCell id="yNfXGNgvHf2kk-u2jspG-4" value="4" style="ellipse;whiteSpace=wrap;html=1;aspect=fixed;" parent="1" vertex="1"><mxGeometry x="80" y="490" width="80" height="80" as="geometry"/></mxCell><mxCell id="yNfXGNgvHf2kk-u2jspG-5" value="5" style="ellipse;whiteSpace=wrap;html=1;aspect=fixed;" parent="1" vertex="1"><mxGeometry x="80" y="620" width="80" height="80" as="geometry"/></mxCell><mxCell id="yNfXGNgvHf2kk-u2jspG-6" value="A" style="whiteSpace=wrap;html=1;aspect=fixed;" parent="1" vertex="1"><mxGeometry x="470" y="20" width="80" height="80" as="geometry"/></mxCell><mxCell id="yNfXGNgvHf2kk-u2jspG-7" value="B" style="whiteSpace=wrap;html=1;aspect=fixed;" parent="1" vertex="1"><mxGeometry x="470" y="140" width="80" height="80" as="geometry"/></mxCell><mxCell id="yNfXGNgvHf2kk-u2jspG-8" value="C" style="whiteSpace=wrap;html=1;aspect=fixed;" parent="1" vertex="1"><mxGeometry x="470" y="260" width="80" height="80" as="geometry"/></mxCell><mxCell id="yNfXGNgvHf2kk-u2jspG-9" value="D" style="whiteSpace=wrap;html=1;aspect=fixed;" parent="1" vertex="1"><mxGeometry x="470" y="490" width="80" height="80" as="geometry"/></mxCell><mxCell id="yNfXGNgvHf2kk-u2jspG-10" value="E" style="whiteSpace=wrap;html=1;aspect=fixed;" parent="1" vertex="1"><mxGeometry x="470" y="620" width="80" height="80" as="geometry"/></mxCell><mxCell id="yNfXGNgvHf2kk-u2jspG-11" value="" style="endArrow=none;html=1;entryX=1;entryY=0.5;entryDx=0;entryDy=0;exitX=0;exitY=0.5;exitDx=0;exitDy=0;strokeColor=#007FFF;fontStyle=1;strokeWidth=2;" parent="1" source="yNfXGNgvHf2kk-u2jspG-6" target="yNfXGNgvHf2kk-u2jspG-1" edge="1"><mxGeometry width="50" height="50" relative="1" as="geometry"><mxPoint x="390" y="330" as="sourcePoint"/><mxPoint x="440" y="280" as="targetPoint"/></mxGeometry></mxCell><mxCell id="yNfXGNgvHf2kk-u2jspG-12" value="" style="endArrow=none;html=1;entryX=0;entryY=0.5;entryDx=0;entryDy=0;exitX=1;exitY=0.5;exitDx=0;exitDy=0;strokeColor=#007FFF;strokeWidth=2;" parent="1" source="yNfXGNgvHf2kk-u2jspG-2" target="yNfXGNgvHf2kk-u2jspG-6" edge="1"><mxGeometry width="50" height="50" relative="1" as="geometry"><mxPoint x="390" y="330" as="sourcePoint"/><mxPoint x="440" y="280" as="targetPoint"/></mxGeometry></mxCell><mxCell id="yNfXGNgvHf2kk-u2jspG-14" value="" style="endArrow=none;html=1;entryX=0;entryY=0.5;entryDx=0;entryDy=0;strokeColor=#007FFF;strokeWidth=2;" parent="1" target="yNfXGNgvHf2kk-u2jspG-7" edge="1"><mxGeometry width="50" height="50" relative="1" as="geometry"><mxPoint x="160" y="180" as="sourcePoint"/><mxPoint x="440" y="280" as="targetPoint"/></mxGeometry></mxCell><mxCell id="yNfXGNgvHf2kk-u2jspG-15" value="" style="endArrow=none;html=1;entryX=0;entryY=0.5;entryDx=0;entryDy=0;exitX=1;exitY=0.5;exitDx=0;exitDy=0;strokeColor=#007FFF;strokeWidth=2;" parent="1" source="yNfXGNgvHf2kk-u2jspG-3" target="yNfXGNgvHf2kk-u2jspG-7" edge="1"><mxGeometry width="50" height="50" relative="1" as="geometry"><mxPoint x="390" y="330" as="sourcePoint"/><mxPoint x="440" y="280" as="targetPoint"/></mxGeometry></mxCell><mxCell id="yNfXGNgvHf2kk-u2jspG-16" value="" style="endArrow=none;html=1;entryX=0;entryY=0.5;entryDx=0;entryDy=0;exitX=1;exitY=0.5;exitDx=0;exitDy=0;strokeColor=#007FFF;strokeWidth=2;" parent="1" source="yNfXGNgvHf2kk-u2jspG-1" target="yNfXGNgvHf2kk-u2jspG-8" edge="1"><mxGeometry width="50" height="50" relative="1" as="geometry"><mxPoint x="390" y="330" as="sourcePoint"/><mxPoint x="440" y="280" as="targetPoint"/></mxGeometry></mxCell><mxCell id="yNfXGNgvHf2kk-u2jspG-17" value="" style="endArrow=none;html=1;entryX=0;entryY=0.5;entryDx=0;entryDy=0;exitX=1;exitY=0.5;exitDx=0;exitDy=0;strokeColor=#007FFF;strokeWidth=2;" parent="1" source="yNfXGNgvHf2kk-u2jspG-3" target="yNfXGNgvHf2kk-u2jspG-8" edge="1"><mxGeometry width="50" height="50" relative="1" as="geometry"><mxPoint x="390" y="330" as="sourcePoint"/><mxPoint x="440" y="280" as="targetPoint"/></mxGeometry></mxCell><mxCell id="yNfXGNgvHf2kk-u2jspG-18" value="" style="endArrow=none;html=1;entryX=0;entryY=0.5;entryDx=0;entryDy=0;exitX=1;exitY=0.5;exitDx=0;exitDy=0;" parent="1" source="yNfXGNgvHf2kk-u2jspG-1" target="yNfXGNgvHf2kk-u2jspG-9" edge="1"><mxGeometry width="50" height="50" relative="1" as="geometry"><mxPoint x="390" y="420" as="sourcePoint"/><mxPoint x="440" y="370" as="targetPoint"/></mxGeometry></mxCell><mxCell id="yNfXGNgvHf2kk-u2jspG-19" value="" style="endArrow=none;html=1;entryX=0;entryY=0.5;entryDx=0;entryDy=0;exitX=1;exitY=0.5;exitDx=0;exitDy=0;" parent="1" source="yNfXGNgvHf2kk-u2jspG-2" target="yNfXGNgvHf2kk-u2jspG-9" edge="1"><mxGeometry width="50" height="50" relative="1" as="geometry"><mxPoint x="390" y="420" as="sourcePoint"/><mxPoint x="440" y="370" as="targetPoint"/></mxGeometry></mxCell><mxCell id="yNfXGNgvHf2kk-u2jspG-20" value="" style="endArrow=none;html=1;entryX=0;entryY=0.5;entryDx=0;entryDy=0;exitX=1;exitY=0.5;exitDx=0;exitDy=0;" parent="1" source="yNfXGNgvHf2kk-u2jspG-3" target="yNfXGNgvHf2kk-u2jspG-9" edge="1"><mxGeometry width="50" height="50" relative="1" as="geometry"><mxPoint x="390" y="420" as="sourcePoint"/><mxPoint x="440" y="370" as="targetPoint"/></mxGeometry></mxCell><mxCell id="yNfXGNgvHf2kk-u2jspG-21" value="" style="endArrow=none;html=1;entryX=0;entryY=0.5;entryDx=0;entryDy=0;exitX=1;exitY=0.5;exitDx=0;exitDy=0;strokeColor=#FFFF33;strokeWidth=2;" parent="1" source="yNfXGNgvHf2kk-u2jspG-4" target="yNfXGNgvHf2kk-u2jspG-9" edge="1"><mxGeometry width="50" height="50" relative="1" as="geometry"><mxPoint x="390" y="420" as="sourcePoint"/><mxPoint x="440" y="370" as="targetPoint"/></mxGeometry></mxCell><mxCell id="yNfXGNgvHf2kk-u2jspG-22" value="" style="endArrow=none;html=1;entryX=0;entryY=0.5;entryDx=0;entryDy=0;exitX=1;exitY=0.5;exitDx=0;exitDy=0;strokeColor=#FFFF33;strokeWidth=2;" parent="1" source="yNfXGNgvHf2kk-u2jspG-5" target="yNfXGNgvHf2kk-u2jspG-9" edge="1"><mxGeometry width="50" height="50" relative="1" as="geometry"><mxPoint x="180" y="520" as="sourcePoint"/><mxPoint x="230" y="470" as="targetPoint"/></mxGeometry></mxCell><mxCell id="yNfXGNgvHf2kk-u2jspG-23" value="" style="endArrow=none;html=1;entryX=0;entryY=0.5;entryDx=0;entryDy=0;exitX=1;exitY=0.5;exitDx=0;exitDy=0;" parent="1" source="yNfXGNgvHf2kk-u2jspG-1" target="yNfXGNgvHf2kk-u2jspG-10" edge="1"><mxGeometry width="50" height="50" relative="1" as="geometry"><mxPoint x="390" y="420" as="sourcePoint"/><mxPoint x="440" y="370" as="targetPoint"/></mxGeometry></mxCell><mxCell id="yNfXGNgvHf2kk-u2jspG-24" value="" style="endArrow=none;html=1;entryX=0;entryY=0.5;entryDx=0;entryDy=0;exitX=1;exitY=0.5;exitDx=0;exitDy=0;" parent="1" source="yNfXGNgvHf2kk-u2jspG-2" target="yNfXGNgvHf2kk-u2jspG-10" edge="1"><mxGeometry width="50" height="50" relative="1" as="geometry"><mxPoint x="390" y="420" as="sourcePoint"/><mxPoint x="440" y="370" as="targetPoint"/></mxGeometry></mxCell><mxCell id="yNfXGNgvHf2kk-u2jspG-25" value="" style="endArrow=none;html=1;entryX=0;entryY=0.5;entryDx=0;entryDy=0;exitX=1;exitY=0.5;exitDx=0;exitDy=0;" parent="1" source="yNfXGNgvHf2kk-u2jspG-3" target="yNfXGNgvHf2kk-u2jspG-10" edge="1"><mxGeometry width="50" height="50" relative="1" as="geometry"><mxPoint x="390" y="420" as="sourcePoint"/><mxPoint x="440" y="370" as="targetPoint"/></mxGeometry></mxCell><mxCell id="yNfXGNgvHf2kk-u2jspG-26" value="" style="endArrow=none;html=1;entryX=0;entryY=0.5;entryDx=0;entryDy=0;exitX=1;exitY=0.5;exitDx=0;exitDy=0;strokeColor=#FFFF33;strokeWidth=2;" parent="1" source="yNfXGNgvHf2kk-u2jspG-4" target="yNfXGNgvHf2kk-u2jspG-10" edge="1"><mxGeometry width="50" height="50" relative="1" as="geometry"><mxPoint x="390" y="420" as="sourcePoint"/><mxPoint x="440" y="370" as="targetPoint"/></mxGeometry></mxCell><mxCell id="yNfXGNgvHf2kk-u2jspG-27" value="" style="endArrow=none;html=1;entryX=0;entryY=0.5;entryDx=0;entryDy=0;exitX=1;exitY=0.5;exitDx=0;exitDy=0;strokeColor=#FFFF33;strokeWidth=2;" parent="1" source="yNfXGNgvHf2kk-u2jspG-5" target="yNfXGNgvHf2kk-u2jspG-10" edge="1"><mxGeometry width="50" height="50" relative="1" as="geometry"><mxPoint x="390" y="420" as="sourcePoint"/><mxPoint x="440" y="370" as="targetPoint"/></mxGeometry></mxCell><mxCell id="6MjcgAD29UfVOWCp08ic-1" value="F" style="whiteSpace=wrap;html=1;aspect=fixed;" parent="1" vertex="1"><mxGeometry x="470" y="380" width="80" height="80" as="geometry"/></mxCell><mxCell id="6MjcgAD29UfVOWCp08ic-2" value="" style="endArrow=none;html=1;entryX=0;entryY=0.5;entryDx=0;entryDy=0;exitX=1;exitY=0.5;exitDx=0;exitDy=0;" parent="1" source="yNfXGNgvHf2kk-u2jspG-1" target="6MjcgAD29UfVOWCp08ic-1" edge="1"><mxGeometry width="50" height="50" relative="1" as="geometry"><mxPoint x="390" y="420" as="sourcePoint"/><mxPoint x="440" y="370" as="targetPoint"/></mxGeometry></mxCell><mxCell id="6MjcgAD29UfVOWCp08ic-3" value="" style="endArrow=none;html=1;entryX=0;entryY=0.5;entryDx=0;entryDy=0;exitX=1;exitY=0.5;exitDx=0;exitDy=0;strokeWidth=2;strokeColor=#FFFF33;" parent="1" source="yNfXGNgvHf2kk-u2jspG-4" target="6MjcgAD29UfVOWCp08ic-1" edge="1"><mxGeometry width="50" height="50" relative="1" as="geometry"><mxPoint x="390" y="420" as="sourcePoint"/><mxPoint x="440" y="370" as="targetPoint"/></mxGeometry></mxCell></root></mxGraphModel></diagram></mxfile>